<?xml version="1.0" encoding="UTF-8"?>
<svg id="Layer_1" data-name="Layer 1" xmlns="http://www.w3.org/2000/svg" viewBox="0 0 917.89 636.36">
  <defs>
    <style>
      .cls-1, .cls-2 {
        fill: none;
      }

      .cls-2 {
        stroke: #211a19;
        stroke-linecap: round;
        stroke-linejoin: round;
      }

      .cls-3 {
        fill: #d42622;
      }

      .cls-4 {
        fill: #211a19;
      }
    </style>
  </defs>
  <g>
    <g>
      <path class="cls-1" d="M241.49,414.64c-.12-.01-.25-.03-.38-.04-42.69-3.88-79.46-12.92-93.61-55.86-.69-2.11-3.83-1.32-3.44.86,7.24,40.35,37.1,59.48,68.73,64.65,11.86,1.94,21.67,2.37,27.98,2.38,7.56.01,8.24-11.17.73-12Z"/>
      <path class="cls-1" d="M360.92,113.64c14.31-9.76,34.78-12.57,47.31-23.65-14.61,6.28-39.38,11.43-47.31,23.65Z"/>
      <path class="cls-1" d="M174.48,243.26l.31-.36c8.56-9.09,26.31-35.84,7.77-18.25-7.18,7.27-16.67,18.22-22.13,27.8-6.34,12.66,12.35-6.73,14.04-9.19Z"/>
      <path class="cls-1" d="M720.29,39.29l33.79,1.2c1.39.05,2.58-1,2.7-2.38.13-1.49-1.01-2.8-2.51-2.85l-33.78-1.27c-1.38-.05-2.57.98-2.7,2.36v.07c-.16,1.5.99,2.82,2.51,2.88Z"/>
      <path class="cls-3" d="M657.58,251.8c-.27.05-.53.12-.79.23-4.72,2.05-33.55,24.83-47.21,34.12-31.18,21.18-42.39,28.6-75.39,46.3-.2.11-.39.21-.59.32-1.25.67-4.03,2.13-7.76,4.07-3.28,1.7-7.31,3.77-11.69,6-7.68,3.9-16.45,8.27-24.27,11.96-9.04,4.27-16.78,7.64-20.02,8.3-.84.17-1.68-.46-1.66-1.33.05-2.51,2.02-3.51,4.24-4.59,6.22-3.03,11.9-5.89,17.09-8.58,12.2-6.33,21.69-11.76,29.15-16.44,23.4-14.69,26.87-22.09,31.43-27.18.1-.11.02-.09.14-.16-8,4.4-30.32,16.22-30.32,16.22,0,0-29.1,14.13-41.27,19.63,1.21-.57,13.85-4.26,22.13-6.65.95-.27,1.49,1.05.61,1.51-4.74,2.49-10.81,5.57-17.32,8.79-2.5,1.24-5.07,2.5-7.65,3.76-15.38,7.51-31.27,14.96-36.94,17.24-80.08,32.16-178.73,44.73-224.22,12.84-28.25-19.81-42.27-44.69-36.33-73.72-.05-.01-.09-.01-.14-.02-.68-.16-1.19-.66-1.58-1.3-1.17-1.93-.08-5.53,1.27-7.34-1.69,2-4,4.93-5.49,6.22-3.92,2.97.17-11.1.86-12.97,4.12-11.64,19.04-31.9,31.97-48.15,12.56-15.8,26.66-30.29,42.11-43.28,19.19-16.13,46.51-37.02,62.03-47.42,45.35-30.41,151.69-76.46,218-90.87,13.81-3,30.7-5.82,38.51-4.29l16.54-5.09c-35.54-1.03-71.24,4.07-105.94,11.48-120.36,25.69-326.26,127.6-356.52,257.98,4.1-8.47,3.56,2.11,3.64,6.29.46,24.57,4.55,38.19,15.63,59.1,41.64,78.62,146.38,60.83,281.15,10.91,34.04-12.61,67.61-27.98,100.18-45.25,4.2-2.23,8.38-4.48,12.55-6.77,46.01-25.28,89.83-54.22,129.89-84.39,2.03-1.43-2.08-8.12-6.03-7.47ZM408.23,89.99c-12.53,11.08-33,13.89-47.31,23.65,7.93-12.22,32.7-17.37,47.31-23.65ZM160.44,252.45c5.46-9.58,14.95-20.54,22.13-27.8,18.54-17.58.79,9.16-7.77,18.25l-.31.36c-1.69,2.46-20.38,21.85-14.04,9.19ZM240.77,426.64c-6.31,0-16.11-.44-27.98-2.38-31.63-5.17-61.5-24.3-68.73-64.65-.39-2.18,2.75-2.97,3.44-.86,14.16,42.94,50.92,51.97,93.61,55.86.13.01.25.02.38.04,7.52.83,6.84,12.01-.73,12Z"/>
      <path class="cls-3" d="M138.78,238.34c-.53,4.03-9.25,23.12,1.69,16.04,16.71-20.03,15.78-42.66,32.88-64.26-45.24,22.78-59.7,59.73-75.3,105.61,1.34,2.03,40.66-73.02,40.72-57.4Z"/>
      <path class="cls-3" d="M225.05,154.47c25.93-12.03,98.6-46.12,123.92-57.94,6.58-2.36,9.97-8.96,3.55-13.93l-.16-.11c-6.2-4.06-14.8.95-22.08,4.04-5.53,2.52-11.6,5.49-17.2,8.33-32.99,16.26-61.98,35.08-89.5,57.94-4.43,3.93-1.76,3.12,1.47,1.67Z"/>
      <path class="cls-3" d="M813.45,38.97c-3.72-7.92-12.75-16.03-21.5-20.68-4.92-2.62-9.47,4.39-4.64,7.74,2.45,1.69,4.46,3.95,6.21,6.36.13.18.28.35.41.54.06.08.1.16.16.25.06.09.13.18.2.27.24.35.44.71.67,1.06.28.43.56.86.82,1.29.26.44.5.89.75,1.34.24.44.49.88.72,1.32.23.45.44.91.65,1.37.21.45.43.89.62,1.34.2.46.37.93.55,1.39.18.46.36.91.53,1.37.17.47.31.94.46,1.41.15.46.3.92.43,1.39.14.48.25.96.37,1.44.12.47.24.93.35,1.4.11.48.19.97.28,1.45.09.47.19.94.26,1.42.08.49.14.98.2,1.47.06.48.13.95.19,1.43.05.5.09,1,.12,1.49.04.48.08.96.11,1.44.03.5.04,1,.05,1.5.01.49.04.97.04,1.46,0,.5-.01,1.01-.02,1.51,0,.49-.01.98-.03,1.46-.02.51-.06,1.02-.09,1.53-.03.49-.05.98-.09,1.46-.04.52-.1,1.03-.15,1.55-.05.49-.09.97-.15,1.46-.06.52-.14,1.03-.21,1.55-.07.49-.13.98-.21,1.47-.08.52-.18,1.04-.27,1.55-.09.49-.17.98-.26,1.47-.1.52-.21,1.05-.32,1.57-.1.48-.2.97-.3,1.45-.12.52-.25,1.05-.37,1.57-.12.49-.23.97-.35,1.46-.13.52-.27,1.03-.41,1.55-.13.49-.26.98-.4,1.47-.14.51-.3,1.03-.45,1.54-.14.49-.28.98-.43,1.47-.16.51-.33,1.03-.49,1.54-.16.49-.31.97-.47,1.46-.17.51-.35,1.02-.52,1.53-.17.48-.33.97-.5,1.45-.18.52-.38,1.04-.56,1.56-.17.47-.33.93-.51,1.4-.2.53-.4,1.06-.6,1.58-.17.45-.34.9-.52,1.35-.2.52-.41,1.04-.62,1.56-.08.19-.15.38-.23.58h0c-.1.26-.21.52-.31.78-.22.53-.44,1.05-.65,1.58-.18.43-.36.87-.54,1.29-.23.54-.46,1.07-.69,1.61-.18.41-.35.83-.53,1.24-.23.53-.46,1.05-.69,1.57-.18.41-.36.83-.54,1.23-.25.57-.51,1.12-.76,1.68-.16.36-.32.72-.48,1.07-.27.58-.53,1.16-.8,1.74-.15.33-.3.66-.45.98-.28.61-.56,1.21-.85,1.81-.13.28-.26.57-.4.85-.03.07-.06.13-.1.2-.79,1.69-1.58,3.35-2.34,4.97-3.88,8.19-21.5,44.54-31.69,52.69-.7.62-1.33,1.05-1.85,1.21-3.47,1.64-6.75,1.25-8.52-1.39-.22-.31-.43-.66-.6-1.06,0-.02-.02-.04-.03-.06-.21-.51-.39-1.08-.51-1.73-.05-.25-.07-.58-.08-.95,0-.02,0-.04,0-.06-.03-2.91,1.19-9.25,3.17-17.62.14-.58.28-1.18.43-1.78,1.05-4.36,2.29-9.21,3.66-14.38.62-2.33,1.26-4.73,1.92-7.17.61-2.26,1.24-4.56,1.88-6.89,8.39-30.41,18.97-65.52,21.88-76.4,1.91-7.13,4.66-9.66,7.66-9.56,1.37.04,2.57-.3,3.58-.88,3.62-2.1,4.52-7.43.42-10.13-.21-.14-.42-.28-.64-.41,0,0-.02,0-.02-.01-.01,0-.03-.01-.04-.02-1.86-1.06-3.79-1.28-5.53-.84-2.47.64-4.52,2.65-5.32,5.6l-25.29,93.35-.92,3.4-2.55,9.4-.54,1.99-1.27,4.69-1.48,5.47-4.54,16.75c-.49,1.8-3.35,9.76-9.98,9.91-.39,0-.78,0-1.2-.05-3.65-.42-6.27-2.75-7.99-5.03-.81-1.07-2.33-.45-2.48.88-3.49,31.36-18.19,43.01-19.58,44.16-7,5.78-.41,13.08,4.74,11.3,5.43-1.88,35.07-24.94,41.01-30.17.92-.81,1.84-1.64,2.76-2.49,1.84-1.7,3.69-3.48,5.54-5.33,5.54-5.55,11.07-11.74,16.45-18.37,1.79-2.21,3.57-4.47,5.32-6.77,3.5-4.6,6.91-9.37,10.19-14.24,4.92-7.31,9.53-14.86,13.7-22.46,1.39-2.53,2.73-5.07,4.01-7.6,1.93-3.8,3.73-7.6,5.39-11.36,1.11-2.51,2.15-5,3.12-7.48,1.95-4.95,3.62-9.81,4.98-14.53,0-.01,0-.02,0-.03,4.54-15.81,9.47-32.57,1.51-49.54Z"/>
      <path class="cls-3" d="M708.66,109.66c0,.12,0,.25.01.37.02.49.23.93.57,1.27.06.06.09.15.16.2,1.2.89,2.9.03,2.9-1.46l.41-25.07.63-38.48c.03-1.99,1.69-3.56,3.68-3.48l41.33,1.58c.98.04,1.62,1.05,1.22,1.95l-1.29,2.9c-.23.52-.75.85-1.32.83l-16.07-.59-22.16-.82c-.79-.03-1.44.6-1.44,1.39v2.68c0,.75.6,1.37,1.35,1.39l8.52.25,26.65.79c.96.03,1.61,1.01,1.25,1.9l-1.2,3.03c-.22.55-.75.9-1.34.88l-28.6-.92-4.73-.15c-.79-.03-1.44.6-1.44,1.39v3.18c0,.75.6,1.37,1.35,1.39l1.11.04,30.27.95c.95.03,1.59.98,1.26,1.87l-1.27,3.45c-.08.22-.22.4-.39.54-.26.23-.59.38-.96.37l-29.63-.89c-.75-.02-1.39.56-1.43,1.31l-.2,3.36-.04.65c-.05.78.56,1.45,1.35,1.47l26.24.75c.95.03,1.59.97,1.27,1.86l-.99,2.78-.3.84c-.2.57-.74.94-1.35.92l-24.81-.63c-.77-.02-1.41.59-1.43,1.36l-.06,2.67v.25c-.02.76.58,1.4,1.34,1.42l20.36.59,1.7.05c.38.01.68.09.91.23.32.19.49.5.34,1.01l-.92,3.23c-.09.33-.31.59-.58.77-.23.15-.51.25-.81.24l-20.98-.74c-.76-.03-1.4.55-1.44,1.31-.22,4.47-.86,19.31-.8,34.77.04,8.82.31,17.84,1.03,25.23,1.13,11.67,8.18,15.07,13.34,10.11,2.47-2.37,4.18-9.77,4.8-12.82.15-.74-.32-1.46-1.05-1.63l-4.8-1.1c-.56-.13-.98-.58-1.06-1.15l-.29-1.9c-.15-.97.73-1.79,1.69-1.56l5.37,1.24c.74.17,1.48-.28,1.66-1.02l.54-2.18.13-.53.27-1.09c.19-.77-.3-1.54-1.07-1.7l-8.58-1.73c-.59-.12-1.03-.6-1.11-1.19l-.29-2.35c-.12-.95.74-1.74,1.68-1.53l9.65,2.12c.1.02.2,0,.3,0,.61,0,1.16-.38,1.34-.98l.64-2.23c.03-.11.02-.21.02-.31.03-.68-.41-1.31-1.11-1.44l-11.84-2.17c-.22-.04-.4-.14-.57-.26-.29-.21-.5-.52-.55-.9l-.27-1.78c-.14-.94.68-1.74,1.61-1.58l10.56,1.82,2.27.39c.68.12,1.34-.28,1.56-.94l.1-.29.86-2.63c.13-.41.06-.83-.14-1.17-.21-.33-.55-.57-.97-.64l-15.84-2.41c-.58-.09-1.05-.54-1.16-1.12l-.13-.72-.3-1.6c-.17-.92.6-1.75,1.53-1.64l18.16,2.1c.69.08,1.33-.36,1.51-1.03l.65-2.49.27-1.01c.11-.44,0-.86-.25-1.19-.22-.29-.54-.5-.94-.54l-9.63-1.06-11.23-1.24c-.67-.07-1.19-.62-1.24-1.3l-.17-2.81c-.02-.28.07-.53.2-.76.26-.45.75-.76,1.32-.71l21.23,2.04,1.46.14c.66.06,1.27-.34,1.46-.97,0,0,.1-.36.26-.98.21-.77.52-1.96.93-3.5,1.32-4.98,3.55-13.49,5.79-22.39.35-1.39.7-2.8,1.05-4.2,1.2-4.84,2.36-9.64,3.33-13.92,4.07-17.88,21.08-47.45-20.3-48.02-11.55-.16-21.7,1.71-26.77,12.27-5.3,11.05-6.26,45.49-5.26,81.49.08,1.54.12,2.96.13,4.27ZM717.79,36.35c.14-1.38,1.32-2.41,2.7-2.36l33.78,1.27c1.5.06,2.64,1.36,2.51,2.85-.12,1.39-1.31,2.43-2.7,2.38l-33.79-1.2c-1.51-.05-2.66-1.37-2.51-2.88v-.07Z"/>
      <path class="cls-3" d="M684.62,231.71c-1.95-1.94-5.08-2.01-7.1-.15l-7.17,5.26c-2.11,1.94-2.22,5.22-.26,7.3l4.23,4.48c1.87,1.98,4.95,2.16,7.04.4l7.49-5.2c2.3-1.94,2.45-5.43.32-7.56l-4.54-4.54Z"/>
    </g>
    <g>
      <path class="cls-1" d="M708.67,110.03c.02.49.23.93.57,1.27.06.06.09.15.16.2,1.2.89,2.9.03,2.9-1.46l.41-25.07.63-38.48c.03-1.99,1.69-3.56,3.68-3.48l41.33,1.58c.98.04,1.62,1.05,1.22,1.95l-1.29,2.9c-.23.52-.75.85-1.32.83l-16.07-.59-22.16-.82c-.79-.03-1.44.6-1.44,1.39v2.68c0,.75.6,1.37,1.35,1.39l8.52.25,26.65.79c.96.03,1.61,1.01,1.25,1.9l-1.2,3.03c-.22.55-.75.9-1.34.88l-28.6-.92-4.73-.15c-.79-.03-1.44.6-1.44,1.39v3.18c0,.75.6,1.37,1.35,1.39l1.11.04,30.27.95c.95.03,1.59.98,1.26,1.87l-1.27,3.45c-.08.22-.22.4-.39.54-.26.23-.59.38-.96.37l-29.63-.89c-.75-.02-1.39.56-1.43,1.31l-.2,3.36-.04.65c-.05.78.56,1.45,1.35,1.47l26.24.75c.95.03,1.59.97,1.27,1.86l-.99,2.78-.3.84c-.2.57-.74.94-1.35.92l-24.81-.63c-.77-.02-1.41.59-1.43,1.36l-.06,2.67v.25c-.02.76.58,1.4,1.34,1.42l20.36.59,1.7.05c.38.01.68.09.91.23.32.19.49.5.34,1.01l-.92,3.23c-.09.33-.31.59-.58.77-.23.15-.51.25-.81.24l-20.98-.74c-.76-.03-1.4.55-1.44,1.31-.22,4.47-.86,19.31-.8,34.77.04,8.82.31,17.84,1.03,25.23,1.13,11.67,8.18,15.07,13.34,10.11,2.47-2.37,4.18-9.77,4.8-12.82.15-.74-.32-1.46-1.05-1.63l-4.8-1.1c-.56-.13-.98-.58-1.06-1.15l-.29-1.9c-.15-.97.73-1.79,1.69-1.56l5.37,1.24c.74.17,1.48-.28,1.66-1.02l.54-2.18.13-.53.27-1.09c.19-.77-.3-1.54-1.07-1.7l-8.58-1.73c-.59-.12-1.03-.6-1.11-1.19l-.29-2.35c-.12-.95.74-1.74,1.68-1.53l9.65,2.12c.1.02.2,0,.3,0,.61,0,1.16-.38,1.34-.98l.64-2.23c.03-.11.02-.21.02-.31.03-.68-.41-1.31-1.11-1.44l-11.84-2.17c-.22-.04-.4-.14-.57-.26-.29-.21-.5-.52-.55-.9l-.27-1.78c-.14-.94.68-1.74,1.61-1.58l10.56,1.82,2.27.39c.68.12,1.34-.28,1.56-.94l.1-.29.86-2.63c.13-.41.06-.83-.14-1.17-.21-.33-.55-.57-.97-.64l-15.84-2.41c-.58-.09-1.05-.54-1.16-1.12l-.13-.72-.3-1.6c-.17-.92.6-1.75,1.53-1.64l18.16,2.1c.69.08,1.33-.36,1.51-1.03l.65-2.49.27-1.01c.11-.44,0-.86-.25-1.19-.22-.29-.54-.5-.94-.54l-9.63-1.06-11.23-1.24c-.67-.07-1.19-.62-1.24-1.3l-.17-2.81c-.02-.28.07-.53.2-.76.26-.45.75-.76,1.32-.71l21.23,2.04,1.46.14c.66.06,1.27-.34,1.46-.97,0,0,.1-.36.26-.98.21-.77.52-1.96.93-3.5,1.32-4.98,3.55-13.49,5.79-22.39.35-1.39.7-2.8,1.05-4.2,1.2-4.84,2.36-9.64,3.33-13.92,4.07-17.88,21.08-47.45-20.3-48.02-11.55-.16-21.7,1.71-26.77,12.27-5.3,11.05-6.26,45.49-5.26,81.49.04,1.42.08,2.84.13,4.27,0,.12,0,.25.01.37ZM717.79,36.35c.14-1.38,1.32-2.41,2.7-2.36l33.78,1.27c1.5.06,2.64,1.36,2.51,2.85-.12,1.39-1.31,2.43-2.7,2.38l-33.79-1.2c-1.51-.05-2.66-1.37-2.51-2.88v-.07Z"/>
      <path class="cls-1" d="M689.16,236.25l-4.54-4.54c-1.95-1.94-5.08-2.01-7.1-.15l-7.17,5.26c-2.11,1.94-2.22,5.22-.26,7.3l4.23,4.48c1.87,1.98,4.95,2.16,7.04.4l7.49-5.2c2.3-1.94,2.45-5.43.32-7.56Z"/>
      <path class="cls-1" d="M475.81,410.79c-3.39-2.26-10.92,1.26-7.82,4.02,1.29.53,2.82.76,4.22.76,3.77.02,5.88-3.02,3.9-4.61l-.3-.17Z"/>
      <path class="cls-1" d="M813.45,38.97c-3.72-7.92-12.75-16.03-21.5-20.68-4.92-2.62-9.47,4.39-4.64,7.74,2.45,1.69,4.46,3.95,6.21,6.36.19.26.39.52.57.78.06.09.13.18.2.27.24.35.44.71.67,1.06.28.43.56.86.82,1.29.26.44.5.89.75,1.34.24.44.49.88.72,1.32.23.45.44.91.65,1.37.21.45.43.89.62,1.34.2.46.37.93.55,1.39.18.46.36.91.53,1.37.17.47.31.94.46,1.41.15.46.3.92.43,1.39.14.48.25.96.37,1.44.12.47.24.93.35,1.4.11.48.19.97.28,1.45.09.47.19.94.26,1.42.08.49.14.98.2,1.47.06.48.13.95.19,1.43.05.5.09,1,.12,1.49.04.48.08.96.11,1.44.03.5.04,1,.05,1.5.01.49.04.97.04,1.46,0,.5-.01,1.01-.02,1.51,0,.49-.01.98-.03,1.46-.02.51-.06,1.02-.09,1.53-.03.49-.05.98-.09,1.46-.04.52-.1,1.03-.15,1.55-.05.49-.09.97-.15,1.46-.06.52-.14,1.03-.21,1.55-.07.49-.13.98-.21,1.47-.08.52-.18,1.04-.27,1.55-.09.49-.17.98-.26,1.47-.1.52-.21,1.05-.32,1.57-.1.48-.2.97-.3,1.45-.12.52-.25,1.05-.37,1.57-.12.49-.23.97-.35,1.46-.13.52-.27,1.03-.41,1.55-.13.49-.26.98-.4,1.47-.14.51-.3,1.03-.45,1.54-.14.49-.28.98-.43,1.47-.16.51-.33,1.03-.49,1.54-.16.49-.31.97-.47,1.46-.17.51-.35,1.02-.52,1.53-.17.48-.33.97-.5,1.45-.18.52-.38,1.04-.56,1.56-.17.47-.33.93-.51,1.4-.2.53-.4,1.06-.6,1.58-.17.45-.34.9-.52,1.35-.2.52-.41,1.04-.62,1.56-.08.19-.15.38-.23.57-.1.26-.21.52-.31.78-.22.53-.44,1.05-.65,1.58-.18.43-.36.87-.54,1.29-.23.54-.46,1.07-.69,1.61-.18.41-.35.83-.53,1.24-.23.53-.46,1.05-.69,1.57-.18.41-.36.83-.54,1.23-.25.57-.51,1.12-.76,1.68-.16.36-.32.72-.48,1.07-.27.58-.53,1.16-.8,1.74-.15.33-.3.66-.45.98-.28.61-.56,1.21-.85,1.81-.13.28-.26.57-.4.85-.03.07-.06.13-.1.2-.79,1.69-1.58,3.35-2.34,4.97-3.88,8.19-21.5,44.54-31.69,52.69-.65.52-1.27.93-1.85,1.21-3.47,1.64-6.75,1.25-8.52-1.39-.22-.33-.43-.66-.6-1.06,0-.02-.02-.04-.03-.06-.22-.52-.39-1.09-.51-1.73-.05-.25-.07-.58-.08-.95,0-.02,0-.04,0-.06-.03-2.91,1.19-9.25,3.17-17.62.14-.58.28-1.18.43-1.78,1.05-4.36,2.29-9.21,3.66-14.38.62-2.33,1.26-4.73,1.92-7.17.61-2.26,1.24-4.56,1.88-6.89,8.39-30.41,18.97-65.52,21.88-76.4,1.91-7.13,4.66-9.66,7.66-9.56,1.37.04,2.57-.3,3.58-.88,3.62-2.1,4.52-7.43.42-10.13-.04-.03-.08-.07-.13-.09-.17-.11-.34-.21-.52-.31,0,0-.02,0-.02-.01,0,0,0,0,0,0-.01,0-.02-.01-.03-.02-1.86-1.06-3.79-1.28-5.53-.84-2.47.64-4.52,2.65-5.32,5.6l-25.29,93.35-.92,3.4-2.55,9.4-.54,1.99-1.27,4.69-1.48,5.47-4.54,16.75c-.49,1.8-3.35,9.76-9.98,9.91-.39,0-.78,0-1.2-.05-3.65-.42-6.27-2.75-7.99-5.03-.81-1.07-2.33-.45-2.48.88-3.49,31.36-18.19,43.01-19.58,44.16-7,5.78-.41,13.08,4.74,11.3,5.43-1.88,35.07-24.94,41.01-30.17.92-.81,1.84-1.64,2.76-2.49,1.84-1.7,3.69-3.48,5.54-5.33,5.54-5.55,11.07-11.74,16.45-18.37,1.79-2.21,3.57-4.47,5.32-6.77,3.5-4.6,6.91-9.37,10.19-14.24,4.92-7.31,9.53-14.86,13.7-22.46,1.39-2.53,2.73-5.07,4.01-7.6,1.93-3.8,3.73-7.6,5.39-11.36,1.11-2.51,2.15-5,3.12-7.48,1.95-4.95,3.62-9.81,4.98-14.53,0-.01,0-.02,0-.03,4.54-15.81,9.47-32.57,1.51-49.54Z"/>
      <path class="cls-4" d="M173,302.01c1.5-1.29,3.81-4.22,5.49-6.22.5-.59.94-1.11,1.29-1.46,1.62-1.47,2.55-1.64,1.98-.04-1.22,3.44-4.05,23.1-4.73,26.44-5.93,29.03,9.98,37.64,38.23,57.45,45.49,31.89,144.14,19.32,224.22-12.84,5.67-2.28,21.56-9.73,36.94-17.24,2.58-1.26,5.15-2.52,7.65-3.76,6.51-3.22,12.58-6.3,17.32-8.79.88-.46.34-1.79-.61-1.51-8.28,2.39-20.92,6.08-22.13,6.65-49.48,23.27-58.26,22.43-110.09,30.94-6.41.86-13.05.68-18.8-1.95-7.05-3.26-12.41-6.65-20.98-6.02-19.06,1.6-37.92,6.36-57.02,5.63-28.82.66-62.83-13.46-69.45-44.19-5.38-27.61,11.51-55.92,27.15-77.65,74.7-99.7,216.56-161.47,337-192.41-7.82-1.53-24.71,1.29-38.51,4.29-66.31,14.41-172.65,60.47-218,90.87-15.52,10.4-42.84,31.3-62.03,47.42-15.45,12.99-29.55,27.48-42.11,43.28-12.93,16.26-27.84,36.51-31.97,48.15-.69,1.87-4.78,15.94-.86,12.97ZM185.84,299.87c.12-.79.24-1.58.38-2.38-.14.79-.26,1.58-.38,2.38Z"/>
      <path class="cls-2" d="M186.22,297.5c-.14.79-.26,1.58-.38,2.38"/>
      <path class="cls-4" d="M561.85,363.55c-7.45,3.19-57.7,32.3-77.63,42.26-4.44,2.45-6.59,1.37-4.91-4.48.74-3.59,7.46-13.25,1.91-10.15-74.29,41.42-175.13,62.47-194.39,66.23-2.49.49-5.24,3.27-3.79,5.36,5.92,8.56,107.06-22.1,156.44-39.53,1.98-.38,2.06.76.7,3.05-35.99,50.49,84.26-28.6,123.54-58.67,1.93-1.48.52-4.55-1.87-4.07ZM472.21,415.57c-1.4,0-2.93-.24-4.22-.76-3.1-2.75,4.43-6.28,7.82-4.02l.3.17c1.97,1.6-.14,4.63-3.9,4.61Z"/>
      <path class="cls-4" d="M213,460.22l-.2-.05c-46.45-9.14-95.67-36.18-108.27-85.1-1.66-5.73-2.79-11.72-3.76-17.56l-.03-.15c-1.17-5.1-8.55-4.6-9.08.6-6.45,64.07,48.27,112.93,115.07,112.93,12.22,0,12.46-8.96,6.27-10.66Z"/>
      <path class="cls-4" d="M231.57,282.85c.95-7.34,1.46-13.22.28-14.47l-.07-.07c-1.62-1.07-3.71,2.24-5.14,4.11-7.22,11.54-15.03,27.02-13.7,41.34.89,10.74,12.03,25.42,16.16,14.06,2.05-8.03.56-17.31.89-25.79.02-6.59.75-13.11,1.59-19.17Z"/>
      <path class="cls-4" d="M278.89,342.76c-12.53,3.13-24.83,3.86-37.61,2.7-2.16-.12-5.52-.68-7.17.36l-.11.1c-1.57,4.52,15,10.9,18.88,12.14,6.38,2.12,10.9,3.38,17.56.16,5.45-2.7,17.21-7.3,17.86-13.84-.14-1.19-1.2-1.95-2.8-2.2-1.92-.32-4.52.11-6.62.57Z"/>
      <path class="cls-4" d="M329.74,322.32c-7.88,2.57-22.94,4.63-26.64,10.66-3.22,7.06,5.01,11.68,11.1,8.62,8.69-3.94,16.77-10.67,24.42-16.6,1.63-1.5,4.72-3.45,5.15-5.27l-.02-.07c-.69-1.28-10.73,1.97-14,2.67Z"/>
      <path class="cls-4" d="M362.19,348.91c-5.94,1.74-9.58,9.92-3.86,14.02,14.8,10.6,31.48-22.11,3.86-14.02Z"/>
      <path class="cls-4" d="M396.86,349.63c8.32,3.02,17.7-8.28,20.24-13.33.37-.87.64-1.82-.12-2.4l-.14-.09c-5.02-2.53-31.7,9.85-19.98,15.83Z"/>
      <path class="cls-4" d="M720.29,39.29l33.79,1.2c1.39.05,2.58-1,2.7-2.38.13-1.49-1.01-2.8-2.51-2.85l-33.78-1.27c-1.38-.05-2.57.98-2.7,2.36v.07c-.16,1.5.99,2.82,2.51,2.88Z"/>
      <path class="cls-4" d="M823.73,39.54c-14.06-35.77-98.95-58.41-117.25-18.2-9.57,21.03-12.15,46.85-10.64,76.9,1.31,26.03,8.25,57.05,7.46,81.91-.51,16.13-7.73,22.34-18.28,32.75-6.21,6.13-19.74,14.77-24.73,20.79-3.24,3.9-3.54,7.97-7.27,12.21-4.39,4.99-17.64,14.07-23.89,18.53-14.15,10.11-29.27,18.88-43.82,28.41-1.11.73-2.52.97-3.76.48-3.9-1.56,5.75-5.44.77-6.53s-21.42,12.18-32.06,18.04c-.13.07-.05.05-.14.16-4.56,5.09-8.03,12.49-31.43,27.18-7.46,4.68-16.95,10.11-29.15,16.44-5.19,2.69-10.87,5.55-17.09,8.58-2.22,1.08-4.19,2.08-4.24,4.59-.02.86.81,1.5,1.66,1.33,3.24-.66,10.98-4.03,20.02-8.3,7.81-3.69,16.58-8.06,24.27-11.96,4.38-2.23,8.41-4.3,11.69-6,3.73-1.94,6.52-3.4,7.76-4.07.2-.11.39-.21.59-.32,33-17.7,44.21-25.12,75.39-46.3,13.66-9.28,42.5-32.06,47.21-34.12.26-.11.52-.19.79-.23,3.94-.66,8.06,6.03,6.03,7.47-40.06,30.17-83.88,59.11-129.89,84.39-4.16,2.29-8.35,4.54-12.55,6.77-32.57,17.27-66.15,32.65-100.18,45.25-134.77,49.93-239.51,67.71-281.15-10.91-11.08-20.91-15.17-34.53-15.63-59.1-.08-4.18.46-14.76-3.64-6.29-17.08,73.62,25.63,119.66,97.44,129.24,111.56,14.9,330.53-96.8,385.75-138.25,0,0,55.74-40.19,62.48-46.31,4.92-4.46,10.13-2.35,15.26-5.1,10.18-5.46,48.58-31.51,83.65-73.36,25.38-30.27,74.18-106.38,58.58-146.07ZM713.79,23.9c5.07-10.56,15.23-12.43,26.77-12.27,41.38.57,24.37,30.15,20.3,48.02-.97,4.28-2.13,9.08-3.33,13.92-.35,1.4-.7,2.8-1.05,4.2-2.24,8.9-4.47,17.41-5.79,22.39-.41,1.54-.73,2.73-.93,3.5-.17.63-.26.98-.26.98-.19.63-.8,1.03-1.46.97l-1.46-.14-21.23-2.04c-.57-.05-1.06.25-1.32.71-.13.23-.22.48-.2.76l.17,2.81c.04.68.56,1.22,1.24,1.3l11.23,1.24,9.63,1.06c.39.04.72.26.94.54.25.33.37.76.25,1.19l-.27,1.01-.65,2.49c-.18.67-.82,1.11-1.51,1.03l-18.16-2.1c-.93-.11-1.7.72-1.53,1.64l.3,1.6.13.72c.11.58.57,1.03,1.16,1.12l15.84,2.41c.42.06.76.31.97.64.21.33.28.76.14,1.17l-.86,2.63-.1.29c-.21.66-.88,1.06-1.56.94l-2.27-.39-10.56-1.82c-.93-.16-1.75.64-1.61,1.58l.27,1.78c.06.37.27.68.55.9.17.12.35.23.57.26l11.84,2.17c.7.13,1.14.76,1.11,1.44,0,.11,0,.21-.02.31l-.64,2.23c-.17.61-.73.98-1.34.98-.1,0-.2.01-.3,0l-9.65-2.12c-.94-.21-1.8.58-1.68,1.53l.29,2.35c.07.59.52,1.07,1.11,1.19l8.58,1.73c.78.16,1.27.93,1.07,1.7l-.27,1.09-.13.53-.54,2.18c-.18.74-.92,1.19-1.66,1.02l-5.37-1.24c-.96-.22-1.84.59-1.69,1.56l.29,1.9c.09.56.51,1.02,1.06,1.15l4.8,1.1c.74.17,1.2.89,1.05,1.63-.62,3.05-2.33,10.45-4.8,12.82-5.16,4.96-12.21,1.55-13.34-10.11-.72-7.4-.99-16.41-1.03-25.23-.07-15.45.58-30.3.8-34.77.04-.76.68-1.34,1.44-1.31l20.98.74c.3.01.57-.08.81-.24.27-.18.48-.44.58-.77l.92-3.23c.15-.51-.02-.82-.34-1.01-.23-.14-.53-.22-.91-.23l-1.7-.05-20.36-.59c-.76-.02-1.37-.66-1.35-1.42v-.25s.07-2.67.07-2.67c.02-.77.66-1.38,1.43-1.36l24.81.63c.6.02,1.14-.36,1.35-.92l.3-.84.99-2.78c.32-.89-.33-1.83-1.27-1.86l-26.24-.75c-.78-.02-1.39-.69-1.35-1.47l.04-.65.2-3.36c.04-.75.68-1.33,1.43-1.31l29.63.89c.36.01.7-.13.96-.37.17-.15.31-.33.39-.54l1.27-3.45c.33-.89-.31-1.84-1.26-1.87l-30.27-.95-1.11-.04c-.75-.02-1.35-.64-1.35-1.39v-3.18c0-.79.65-1.42,1.44-1.39l4.73.15,28.6.92c.59.02,1.12-.33,1.34-.88l1.2-3.03c.35-.9-.29-1.87-1.25-1.9l-26.65-.79-8.52-.25c-.75-.02-1.35-.64-1.35-1.39v-2.68c0-.79.66-1.42,1.44-1.39l22.16.82,16.07.59c.57.02,1.09-.31,1.32-.83l1.29-2.9c.4-.9-.24-1.92-1.22-1.95l-41.33-1.58c-1.98-.08-3.64,1.49-3.68,3.48l-.63,38.48-.41,25.07c0,1.49-1.7,2.35-2.9,1.46-.07-.05-.1-.14-.16-.2-.34-.34-.55-.78-.57-1.27,0-.12,0-.25-.01-.37-.05-1.42-.09-2.85-.13-4.27-1-36-.04-70.45,5.26-81.49ZM681.35,249c-2.08,1.75-5.17,1.57-7.04-.4l-4.23-4.48c-1.96-2.08-1.85-5.36.26-7.3l7.17-5.26c2.02-1.86,5.16-1.8,7.1.15l4.54,4.54c2.13,2.13,1.98,5.62-.32,7.56l-7.49,5.2ZM811.93,88.55c-1.36,4.72-3.03,9.58-4.98,14.53-.97,2.47-2.02,4.97-3.12,7.48-1.66,3.76-3.46,7.56-5.39,11.36-1.28,2.53-2.62,5.07-4.01,7.6-4.17,7.6-8.78,15.15-13.7,22.46-3.28,4.87-6.69,9.64-10.19,14.24-1.75,2.3-3.53,4.56-5.32,6.77-5.37,6.63-10.91,12.82-16.45,18.37-1.85,1.85-3.7,3.63-5.54,5.33-.92.85-1.84,1.68-2.76,2.49-5.94,5.23-35.58,28.29-41.01,30.17-5.15,1.79-11.74-5.52-4.74-11.3,1.39-1.15,16.09-12.8,19.58-44.16.15-1.33,1.67-1.95,2.48-.88,1.73,2.28,4.35,4.61,7.99,5.03.41.05.81.05,1.2.05,6.62-.15,9.49-8.1,9.98-9.91l4.54-16.75,1.48-5.47,1.27-4.69.54-1.99,2.55-9.4.92-3.4,25.29-93.35c.8-2.95,2.85-4.96,5.32-5.6,1.73-.45,3.67-.23,5.53.84.01,0,.02.01.03.02,0,0,0,0,0,0,0,0,.02,0,.02.01.17.1.35.21.52.31.05.03.08.06.13.09,4.09,2.7,3.2,8.03-.42,10.13-1,.58-2.2.93-3.58.88-3-.1-5.76,2.43-7.66,9.56-2.91,10.88-13.48,45.99-21.88,76.4-.64,2.33-1.27,4.63-1.88,6.89-.66,2.44-1.3,4.84-1.92,7.17-1.37,5.17-2.61,10.02-3.66,14.38-.15.6-.29,1.2-.43,1.78-1.98,8.37-3.2,14.71-3.17,17.62,0,.02,0,.04,0,.06,0,.37.03.7.08.95.12.64.3,1.21.51,1.73,0,.02.02.04.03.06.17.4.38.73.6,1.06,1.77,2.64,5.05,3.03,8.52,1.39.58-.28,1.2-.69,1.85-1.21,10.18-8.15,27.81-44.49,31.69-52.69.77-1.62,1.55-3.28,2.34-4.97.03-.07.06-.13.1-.2.13-.28.26-.57.4-.85.28-.6.56-1.2.85-1.81.15-.32.3-.66.45-.98.27-.58.53-1.15.8-1.74.16-.36.32-.72.48-1.07.25-.56.51-1.12.76-1.68.18-.41.36-.82.54-1.23.23-.52.46-1.04.69-1.57.18-.41.35-.83.53-1.24.23-.54.46-1.07.69-1.61.18-.43.36-.86.54-1.29.22-.53.44-1.05.65-1.58.11-.26.21-.52.31-.78.08-.19.15-.38.23-.57.21-.52.42-1.04.62-1.56.18-.45.34-.9.52-1.35.2-.53.41-1.05.6-1.58.17-.46.34-.93.51-1.4.19-.52.38-1.04.56-1.56.17-.48.33-.96.5-1.45.17-.51.35-1.02.52-1.53.16-.49.31-.97.47-1.46.16-.51.33-1.02.49-1.54.15-.49.29-.98.43-1.47.15-.51.31-1.02.45-1.54.14-.49.26-.98.4-1.47.14-.52.28-1.03.41-1.55.12-.48.23-.97.35-1.46.13-.52.26-1.05.37-1.57.11-.48.2-.97.3-1.45.11-.52.22-1.05.32-1.57.09-.49.17-.98.26-1.47.09-.52.19-1.04.27-1.55.08-.49.14-.98.21-1.47.07-.52.15-1.03.21-1.55.06-.49.1-.97.15-1.46.05-.52.11-1.03.15-1.55.04-.49.06-.98.09-1.46.03-.51.07-1.02.09-1.53.02-.49.02-.98.03-1.46,0-.5.02-1.01.02-1.51,0-.49-.02-.97-.04-1.46-.01-.5-.02-1-.05-1.5-.03-.48-.07-.96-.11-1.44-.04-.5-.07-1-.12-1.49-.05-.48-.12-.96-.19-1.43-.07-.49-.12-.98-.2-1.47-.08-.48-.17-.95-.26-1.42-.09-.48-.18-.97-.28-1.45-.1-.47-.23-.93-.35-1.4-.12-.48-.24-.96-.37-1.44-.13-.46-.29-.92-.43-1.39-.15-.47-.29-.94-.46-1.41-.16-.46-.35-.91-.53-1.37-.18-.46-.36-.93-.55-1.39-.19-.45-.41-.9-.62-1.34-.21-.46-.42-.91-.65-1.37-.23-.44-.48-.88-.72-1.32-.25-.45-.49-.9-.75-1.34-.26-.43-.54-.86-.82-1.29-.23-.35-.43-.71-.67-1.06-.06-.09-.13-.18-.2-.27-.18-.27-.38-.52-.57-.78-1.75-2.42-3.76-4.67-6.21-6.36-4.83-3.34-.28-10.36,4.64-7.74,8.74,4.66,17.78,12.76,21.5,20.68,7.96,16.97,3.03,33.73-1.51,49.54,0,.01,0,.02,0,.03Z"/>
      <path class="cls-2" d="M797.46,89.87c.16-.51.33-1.02.49-1.54"/>
      <path class="cls-2" d="M796.47,92.86c.17-.51.35-1.02.52-1.53"/>
      <path class="cls-2" d="M798.83,85.32c-.14.51-.3,1.03-.45,1.54"/>
      <path class="cls-2" d="M799.64,82.3c-.13.52-.27,1.03-.41,1.55"/>
      <path class="cls-2" d="M748.78,191.35c-1.85,1.85-3.7,3.63-5.54,5.33"/>
      <path class="cls-2" d="M780.73,151.98c-3.28,4.87-6.69,9.64-10.19,14.24"/>
      <path class="cls-2" d="M765.23,172.99c1.79-2.21,3.57-4.47,5.32-6.77"/>
      <path class="cls-2" d="M793.16,101.76c.21-.52.42-1.04.62-1.56"/>
      <path class="cls-2" d="M794.9,97.26c-.2.53-.4,1.06-.6,1.58"/>
      <path class="cls-2" d="M795.41,95.87c.19-.52.38-1.04.56-1.56"/>
      <path class="cls-2" d="M800.36,79.27c-.12.52-.25,1.05-.37,1.57"/>
      <path class="cls-2" d="M783.44,28.37s.02,0,.02.01"/>
      <path class="cls-2" d="M795.78,35.8c.26.44.5.89.75,1.34"/>
      <path class="cls-2" d="M801.5,51.01c-.09-.48-.18-.97-.28-1.45"/>
      <path class="cls-2" d="M800.86,48.15c-.12-.48-.24-.96-.37-1.44"/>
      <path class="cls-2" d="M740.13,176.4s-.02-.04-.03-.06"/>
      <path class="cls-2" d="M801.76,52.43c.08.49.14.98.2,1.47"/>
      <path class="cls-2" d="M797.25,38.46c.23.45.44.91.65,1.37"/>
      <path class="cls-2" d="M802.47,61.22c0,.5-.01,1.01-.02,1.51"/>
      <path class="cls-2" d="M798.52,41.16c.2.46.37.93.55,1.39"/>
      <path class="cls-2" d="M799.6,43.92c.17.47.31.94.46,1.41"/>
      <path class="cls-2" d="M801.52,73.22c-.08.52-.18,1.04-.27,1.55"/>
      <path class="cls-2" d="M801.94,70.2c-.06.52-.14,1.03-.21,1.55"/>
      <path class="cls-2" d="M800.99,76.24c-.1.52-.21,1.05-.32,1.57"/>
      <path class="cls-2" d="M802.15,55.33c.05.5.09,1,.12,1.49"/>
      <path class="cls-2" d="M802.24,67.2c-.04.52-.1,1.03-.15,1.55"/>
      <path class="cls-2" d="M802.38,58.27c.03.5.04,1,.05,1.5"/>
      <path class="cls-2" d="M802.42,64.2c-.02.51-.06,1.02-.09,1.53"/>
      <path class="cls-2" d="M786.47,117.12c-.28.61-.56,1.21-.85,1.81"/>
      <path class="cls-2" d="M791.42,105.99c-.23.54-.46,1.07-.69,1.61"/>
      <path class="cls-2" d="M792.61,103.11c-.22.53-.44,1.05-.65,1.58"/>
      <path class="cls-2" d="M786.92,116.14c.27-.58.53-1.15.8-1.74"/>
      <path class="cls-2" d="M790.2,108.84c-.23.53-.46,1.05-.69,1.57"/>
      <path class="cls-2" d="M788.97,111.64c-.25.57-.51,1.12-.76,1.68"/>
    </g>
  </g>
  <g>
    <path d="M.04,609.11l16.82-91.69c.17-.95.94-1.64,1.84-1.64h35.61c11.38,0,20.16,2.71,26.35,8.14,6.19,5.43,9.29,12.98,9.29,22.64,0,8.03-1.78,15.05-5.33,21.07-3.56,6.02-8.6,10.67-15.12,13.96-6.53,3.28-14.18,4.93-22.97,4.93h-15.91c-.89,0-1.66.68-1.83,1.64l-4.04,21.77c-.18.95-.94,1.64-1.83,1.64H1.87c-1.18,0-2.07-1.18-1.84-2.44ZM33.42,562.72c-.23,1.26.65,2.44,1.84,2.44h12.4c5.44,0,9.66-1.39,12.68-4.17,3.01-2.78,4.52-6.82,4.52-12.11,0-4.01-1.21-6.98-3.64-8.89-2.43-1.91-5.82-2.87-10.17-2.87h-11.39c-.89,0-1.66.69-1.84,1.64l-4.4,23.97Z"/>
    <path d="M90.77,609.11l12.81-70.08c.17-.95.94-1.64,1.84-1.64h18.77c1.18,0,2.07,1.18,1.84,2.44h0c-.33,1.82,1.53,3.09,2.94,2.04,2.01-1.5,4.23-2.68,6.67-3.53,3.54-1.23,7.41-1.95,11.61-2.14,1.19-.05,2.11,1.15,1.88,2.43l-3.37,19.07c-.18,1.04-1.08,1.74-2.05,1.64-1.29-.13-2.51-.2-3.68-.2-5.19,0-9.43,1.37-12.74,4.1-3.31,2.74-5.5,7.16-6.59,13.27l-6.22,33.39c-.18.95-.94,1.63-1.83,1.63h-20.03c-1.18,0-2.07-1.18-1.84-2.44Z"/>
    <path d="M182.82,612.78c-7.2,0-13.47-1.39-18.83-4.17-5.35-2.78-9.5-6.7-12.42-11.76-2.93-5.06-4.39-11.02-4.39-17.86,0-8.21,1.8-15.53,5.4-21.96,3.6-6.43,8.53-11.51,14.81-15.26,6.27-3.74,13.47-5.61,21.59-5.61,7.19,0,13.47,1.39,18.83,4.17,5.35,2.78,9.49,6.7,12.42,11.77,2.93,5.06,4.39,10.97,4.39,17.72,0,8.21-1.8,15.55-5.4,22.03-3.6,6.48-8.53,11.59-14.81,15.32-6.27,3.74-13.47,5.61-21.59,5.61ZM184.2,592.12c4.77,0,8.66-1.94,11.67-5.81,3.01-3.88,4.52-8.92,4.52-15.12,0-4.1-1.11-7.52-3.33-10.26-2.22-2.74-5.38-4.11-9.47-4.11-4.77,0-8.66,1.92-11.67,5.75-3.01,3.83-4.52,8.89-4.52,15.19,0,4.38,1.11,7.87,3.33,10.47,2.22,2.6,5.37,3.9,9.47,3.9Z"/>
    <path d="M230.07,609.11l16.82-91.69c.17-.95.94-1.64,1.84-1.64h17.41c.76,0,1.45.5,1.73,1.27l18.9,50.87c.54,1.45,2.32,1.73,3.21.49l37.35-51.86c.35-.49.9-.78,1.47-.78h18.02c1.18,0,2.06,1.17,1.84,2.43l-16.58,91.69c-.17.96-.94,1.65-1.84,1.65h-19.15c-1.18,0-2.06-1.17-1.84-2.44l7.19-39.64c.38-2.11-2.1-3.35-3.31-1.65l-23.97,33.5c-.35.5-.9.79-1.48.79h-8.77c-.75,0-1.43-.49-1.72-1.24l-13.09-33.71c-.72-1.85-3.2-1.57-3.56.39l-7.79,42.36c-.18.95-.94,1.64-1.83,1.64h-19.02c-1.18,0-2.07-1.18-1.84-2.44Z"/>
    <path d="M348.66,609.11l12.81-70.08c.17-.95.94-1.64,1.84-1.64h19.9c1.18,0,2.07,1.18,1.84,2.44l-12.81,70.08c-.17.95-.94,1.64-1.84,1.64h-19.9c-1.18,0-2.07-1.18-1.84-2.44ZM376.83,529.18c-4.18,0-7.51-1.25-9.98-3.76-2.47-2.51-3.7-5.54-3.7-9.1,0-4.19,1.4-7.71,4.2-10.54,2.8-2.83,6.55-4.24,11.23-4.24,4.18,0,7.51,1.19,9.98,3.56,2.47,2.37,3.7,5.34,3.7,8.89,0,4.47-1.4,8.12-4.2,10.95-2.8,2.83-6.55,4.24-11.23,4.24Z"/>
    <path d="M387.82,609.11l12.81-70.08c.17-.95.94-1.64,1.84-1.64h18.77c1.18,0,2.07,1.18,1.84,2.44h0c-.33,1.82,1.53,3.09,2.94,2.04,2.01-1.5,4.23-2.68,6.67-3.53,3.54-1.23,7.41-1.95,11.61-2.14,1.19-.05,2.11,1.15,1.88,2.43l-3.37,19.07c-.18,1.04-1.08,1.74-2.05,1.64-1.29-.13-2.51-.2-3.68-.2-5.19,0-9.43,1.37-12.74,4.1-3.31,2.74-5.5,7.16-6.59,13.27l-6.22,33.39c-.18.95-.94,1.63-1.83,1.63h-20.03c-1.18,0-2.07-1.18-1.84-2.44Z"/>
    <path d="M443.16,609.11l12.81-70.08c.17-.95.94-1.64,1.84-1.64h18.77c1.18,0,2.07,1.18,1.84,2.44h0c-.33,1.82,1.53,3.09,2.94,2.04,2.01-1.5,4.23-2.68,6.67-3.53,3.54-1.23,7.41-1.95,11.61-2.14,1.19-.05,2.11,1.15,1.88,2.43l-3.37,19.07c-.18,1.04-1.08,1.74-2.05,1.64-1.29-.13-2.51-.2-3.68-.2-5.19,0-9.43,1.37-12.74,4.1-3.31,2.74-5.5,7.16-6.59,13.27l-6.22,33.39c-.18.95-.94,1.63-1.83,1.63h-20.03c-1.18,0-2.07-1.18-1.84-2.44Z"/>
    <path d="M535.21,612.78c-7.2,0-13.47-1.39-18.83-4.17-5.35-2.78-9.5-6.7-12.42-11.76-2.93-5.06-4.39-11.02-4.39-17.86,0-8.21,1.8-15.53,5.4-21.96,3.6-6.43,8.53-11.51,14.81-15.26,6.27-3.74,13.47-5.61,21.59-5.61,7.19,0,13.47,1.39,18.83,4.17,5.35,2.78,9.49,6.7,12.42,11.77,2.93,5.06,4.39,10.97,4.39,17.72,0,8.21-1.8,15.55-5.4,22.03-3.6,6.48-8.53,11.59-14.81,15.32-6.27,3.74-13.47,5.61-21.58,5.61ZM536.59,592.12c4.77,0,8.66-1.94,11.67-5.81,3.01-3.88,4.52-8.92,4.52-15.12,0-4.1-1.11-7.52-3.33-10.26-2.22-2.74-5.38-4.11-9.47-4.11-4.77,0-8.66,1.92-11.67,5.75-3.01,3.83-4.52,8.89-4.52,15.19,0,4.38,1.11,7.87,3.33,10.47,2.22,2.6,5.37,3.9,9.47,3.9Z"/>
    <path d="M581.33,609.11l12.81-70.08c.17-.95.94-1.64,1.84-1.64h18.77c1.18,0,2.07,1.18,1.84,2.44h0c-.33,1.82,1.53,3.09,2.94,2.04,2.01-1.5,4.23-2.68,6.67-3.53,3.54-1.23,7.41-1.95,11.61-2.14,1.19-.05,2.11,1.15,1.88,2.43l-3.37,19.07c-.18,1.04-1.08,1.74-2.05,1.64-1.29-.13-2.51-.2-3.68-.2-5.19,0-9.43,1.37-12.74,4.1-3.31,2.74-5.5,7.16-6.59,13.27l-6.22,33.39c-.18.95-.94,1.63-1.83,1.63h-20.03c-1.18,0-2.07-1.18-1.84-2.44Z"/>
    <path d="M683.42,613.46c-8.95,0-16.73-1.78-23.34-5.34-6.61-3.56-11.73-8.5-15.37-14.85-3.64-6.34-5.46-13.66-5.46-21.96s1.34-15.94,4.02-22.92c2.68-6.98,6.48-13.06,11.42-18.26,4.94-5.2,10.81-9.21,17.63-12.04,6.82-2.83,14.41-4.24,22.78-4.24,8.79,0,16.35,1.5,22.71,4.51,5.75,2.72,10.54,6.56,14.38,11.52.67.87.52,2.19-.3,2.89l-14.93,12.84c-.79.68-1.9.53-2.57-.27-2.61-3.14-5.42-5.38-8.43-6.73-3.47-1.55-7.47-2.33-11.99-2.33-6.02,0-11.25,1.44-15.69,4.31-4.44,2.87-7.86,6.82-10.29,11.83-2.43,5.02-3.64,10.72-3.64,17.1s1.94,11.68,5.83,15.6c3.89,3.92,9.43,5.88,16.63,5.88,3.73,0,7.29-.64,10.67-1.92.62-.24,1.08-.83,1.21-1.54l1.97-10.65c.23-1.26-.65-2.44-1.83-2.44h-8.22c-1.18,0-2.07-1.18-1.83-2.44l1.63-8.78c.18-.95.94-1.64,1.83-1.64h30.94c1.18,0,2.07,1.18,1.84,2.44l-6.81,37.12c-.09.51-.36.98-.75,1.28-4.38,3.42-9.41,6.09-15.08,8-5.94,2-12.26,3.01-18.95,3.01Z"/>
    <path d="M768.75,612.78c-7.2,0-13.47-1.39-18.83-4.17-5.35-2.78-9.5-6.7-12.42-11.76-2.93-5.06-4.39-11.02-4.39-17.86,0-8.21,1.8-15.53,5.4-21.96,3.6-6.43,8.53-11.51,14.81-15.26,6.27-3.74,13.47-5.61,21.58-5.61,7.19,0,13.47,1.39,18.83,4.17,5.35,2.78,9.49,6.7,12.42,11.77,2.93,5.06,4.39,10.97,4.39,17.72,0,8.21-1.8,15.55-5.4,22.03-3.6,6.48-8.53,11.59-14.81,15.32-6.27,3.74-13.47,5.61-21.58,5.61ZM770.13,592.12c4.77,0,8.66-1.94,11.67-5.81,3.01-3.88,4.52-8.92,4.52-15.12,0-4.1-1.11-7.52-3.33-10.26-2.22-2.74-5.38-4.11-9.47-4.11-4.77,0-8.66,1.92-11.67,5.75-3.01,3.83-4.52,8.89-4.52,15.19,0,4.38,1.11,7.87,3.33,10.47,2.22,2.6,5.37,3.9,9.47,3.9Z"/>
    <path d="M814.88,609.11l17.83-97.44c.17-.95.94-1.64,1.84-1.64h20.03c1.18,0,2.07,1.18,1.84,2.44l-17.83,97.44c-.17.95-.94,1.64-1.84,1.64h-20.03c-1.18,0-2.07-1.18-1.84-2.44Z"/>
    <path d="M855.42,634l10.26-72.09c.18-1.24-.7-2.35-1.85-2.35h-5.56c-1.18,0-2.07-1.18-1.83-2.45l2.87-15.35c.18-.95.94-1.63,1.83-1.63h6.89c.87,0,1.63-.66,1.82-1.59l.3-1.42c1.51-8.48,4.94-15.32,10.29-20.52,5.35-5.2,12.59-7.8,21.71-7.8,3.26,0,6.3.34,9.1,1.03,2.03.49,3.87,1.14,5.52,1.95,1,.49,1.41,1.81.88,2.86l-7.33,14.56c-.47.93-1.52,1.31-2.41.86-1.69-.85-3.53-1.28-5.51-1.28-2.68,0-4.75.8-6.21,2.39s-2.53,4.08-3.2,7.46l-.25,1.51h13.79c1.18,0,2.06,1.17,1.84,2.44l-2.78,15.35c-.17.96-.94,1.65-1.84,1.65h-14.11c-.93,0-1.71.74-1.85,1.74l-7.37,53.48c-.07.49-.29.93-.64,1.25l-21.3,19.84c-1.32,1.23-3.33,0-3.06-1.86Z"/>
  </g>
</svg>